<?xml version="1.0" encoding="utf-8"?>
<!-- Generator: Adobe Illustrator 16.0.0, SVG Export Plug-In . SVG Version: 6.00 Build 0)  -->
<!DOCTYPE svg PUBLIC "-//W3C//DTD SVG 1.1//EN" "http://www.w3.org/Graphics/SVG/1.1/DTD/svg11.dtd">
<svg version="1.1" id="Layer_2" xmlns="http://www.w3.org/2000/svg" xmlns:xlink="http://www.w3.org/1999/xlink" x="0px" y="0px"
	 width="141.732px" height="141.732px" viewBox="0 0 141.732 141.732" enable-background="new 0 0 141.732 141.732"
	 xml:space="preserve">
<g>
	<g>
		<path fill="#6FA742" d="M75.445,79.011c1.35,0.789,2.642,2.139,3.881,4.051l0.506,0.506l-0.506,0.508
			c-3.712,4.049-8.129,7.23-13.248,9.533c-5.121,2.305-10.661,3.461-16.623,3.461c-5.176,0-10.041-1.041-14.598-3.123
			c-4.557-2.08-8.581-4.979-12.066-8.691c-3.375-3.598-6.049-7.846-8.016-12.74c-1.97-4.895-2.953-10.152-2.953-15.779
			c0-5.625,0.87-10.885,2.616-15.779c1.743-4.895,4.245-9.198,7.51-12.91c3.262-3.6,7.228-6.469,11.897-8.607
			c4.667-2.136,9.873-3.206,15.61-3.206c3.148,0,6.608,0.479,10.379,1.435c3.768,0.957,7.283,2.476,10.547,4.557
			c3.262,2.083,5.962,4.81,8.101,8.185c2.136,3.375,3.207,7.426,3.207,12.15c0,4.615-1.181,8.354-3.544,11.223
			c-2.363,2.87-5.176,5.122-8.438,6.75c-3.265,1.633-6.724,2.758-10.379,3.375c-3.657,0.619-6.835,0.928-9.535,0.928
			c-4.164,0-7.792-0.252-10.885-0.758c-3.096-0.508-5.205-0.871-6.329-1.098c0.448,4.051,1.35,7.342,2.7,9.873
			s2.869,4.529,4.557,5.99c1.688,1.463,3.375,2.447,5.063,2.953c1.688,0.506,3.207,0.76,4.557,0.76c2.363,0,4.612-0.225,6.75-0.676
			c2.136-0.447,4.05-0.953,5.738-1.518c1.688-0.563,3.291-1.123,4.81-1.688c1.519-0.563,3.009-0.844,4.472-0.844
			C72.8,77.831,74.206,78.226,75.445,79.011z M49.456,30.578c-1.239,0.113-2.7,0.422-4.388,0.928
			c-1.688,0.507-3.349,1.435-4.979,2.785c-1.632,1.35-3.122,3.264-4.472,5.737c-1.35,2.477-2.307,5.627-2.869,9.451
			c1.798,0.563,4.359,1.097,7.679,1.603c3.317,0.507,6.637,0.591,9.957,0.253c3.317-0.337,6.244-1.292,8.775-2.868
			c2.532-1.574,3.908-4.22,4.135-7.932c0.224-2.812-0.873-5.232-3.291-7.257C57.583,31.252,54.068,30.353,49.456,30.578z"/>
	</g>
</g>
<g>
	<g>
		<path fill="#DBDB21" d="M81.662,86.217c5.063-1.495,10.518-2.536,16.37-3.125c5.849-0.586,11.278-0.293,16.285,0.882
			c5.005,1.177,9.14,3.42,12.404,6.729c3.262,3.311,4.894,8.065,4.894,14.262c0,4.592-1.07,8.598-3.206,12.018
			c-1.915,3.098-4.557,5.77-7.932,8.013c-3.264,2.027-6.695,3.47-10.294,4.326c-3.602,0.854-6.919,1.282-9.957,1.282h-1.519
			c-5.176-0.216-9.901-1.282-14.176-3.205c-4.277-1.923-8.045-4.542-11.307-7.852c-3.151-3.42-5.653-7.398-7.51-11.938
			c-1.856-4.541-2.898-9.694-3.122-15.463c-0.113-0.428-0.168-0.856-0.168-1.282c0-0.428,0-0.855,0-1.281
			c0-6.089,1.123-11.59,3.375-16.505c2.25-4.912,5.4-8.974,9.451-12.179c-3.602-2.563-6.442-5.688-8.522-9.374
			c-2.083-3.686-3.122-7.717-3.122-12.098c0-3.951,0.899-7.637,2.7-11.057c1.798-3.417,4.274-6.354,7.425-8.813
			c3.148-2.564,6.806-4.567,10.97-6.009c4.161-1.442,8.606-2.163,13.332-2.163c5.287,0,10.041,0.721,14.26,2.163
			c4.219,1.442,7.789,3.445,10.716,6.009c6.299,5.127,9.451,11.752,9.451,19.87c0,3.741-0.873,7.318-2.616,10.736
			c-1.746,3.42-4.134,6.357-7.172,8.813c-2.927,2.459-6.329,4.407-10.21,5.85c-3.881,1.441-8.016,2.271-12.404,2.483v0.16h-1.012
			c-3.713,0-6.695,0.588-8.944,1.763c-2.252,1.069-3.995,2.619-5.232,4.646c-1.239,1.71-2.083,3.846-2.531,6.41
			C81.886,82.852,81.662,84.83,81.662,86.217z M112.207,112.977c1.124-1.068,1.856-2.218,2.194-3.445
			c0.337-1.229,0.506-2.431,0.506-3.604c0-1.069-0.058-1.763-0.169-2.084c-0.337-1.497-0.957-2.884-1.856-4.166
			c-0.788-0.961-1.914-1.817-3.375-2.563c-1.463-0.642-3.038-1.097-4.725-1.362c-1.688-0.268-3.434-0.4-5.232-0.4
			c-1.801,0-3.602,0.105-5.4,0.32c-1.801,0.213-3.489,0.453-5.063,0.721c-1.577,0.266-2.953,0.562-4.135,0.882
			c-1.181,0.32-2.054,0.533-2.616,0.641c0.224,1.282,0.506,2.669,0.844,4.166c0.337,1.495,0.844,2.99,1.519,4.487
			c0.786,1.707,1.743,3.285,2.869,4.727c1.124,1.442,2.532,2.589,4.219,3.445c2.363,1.388,5.173,2.083,8.438,2.083
			c3.262,0,5.822-0.375,7.679-1.121C109.76,114.952,111.194,114.044,112.207,112.977z M98.031,25.005
			c-1.013,0-2.252,0.188-3.713,0.561c-1.463,0.375-2.842,1.097-4.135,2.163c-1.294,1.069-2.392,2.539-3.291,4.407
			c-0.902,1.87-1.35,4.301-1.35,7.291c0,2.992,0.448,5.423,1.35,7.291c0.899,1.87,1.996,3.313,3.291,4.326
			c1.292,1.017,2.671,1.71,4.135,2.083c1.461,0.376,2.7,0.561,3.713,0.561c1.123,0,2.418-0.185,3.881-0.561
			c1.461-0.373,2.84-1.066,4.135-2.083c1.292-1.014,2.389-2.456,3.291-4.326c0.899-1.868,1.35-4.299,1.35-7.291
			c0-2.99-0.451-5.421-1.35-7.291c-0.901-1.868-1.999-3.337-3.291-4.407c-1.295-1.066-2.674-1.788-4.135-2.163
			C100.449,25.193,99.154,25.005,98.031,25.005z"/>
	</g>
</g>
</svg>
